<svg xmlns="http://www.w3.org/2000/svg" width="512" height="512" viewBox="0 0 512 512">
  <defs>
    <linearGradient id="bg" x1="0" y1="0" x2="1" y2="1">
      <stop offset="0" stop-color="#5ba83a"/>
      <stop offset="1" stop-color="#3f7a28"/>
    </linearGradient>
    <linearGradient id="roof" x1="0" y1="0" x2="0" y2="1">
      <stop offset="0" stop-color="#5c97f0"/>
      <stop offset="1" stop-color="#3f6fc4"/>
    </linearGradient>
  </defs>
  <rect width="512" height="512" rx="112" fill="url(#bg)"/>
  <rect width="512" height="512" rx="112" fill="#000" opacity="0.0"/>
  <!-- ground shadow -->
  <ellipse cx="256" cy="404" rx="150" ry="34" fill="#000" opacity="0.18"/>
  <!-- tower body (stone) -->
  <path d="M168 196 h176 v176 a40 40 0 0 1 -40 40 h-96 a40 40 0 0 1 -40 -40 z" fill="#c2ccd4"/>
  <path d="M256 196 h88 v176 a40 40 0 0 1 -40 40 h-48 z" fill="#9aa4ad"/>
  <!-- crenellations -->
  <g fill="#c2ccd4">
    <rect x="160" y="172" width="34" height="40" rx="6"/>
    <rect x="222" y="172" width="34" height="40" rx="6"/>
    <rect x="284" y="172" width="34" height="40" rx="6"/>
    <rect x="346" y="172" width="6" height="40"/>
  </g>
  <g fill="#9aa4ad">
    <rect x="256" y="172" width="34" height="40" rx="6"/>
    <rect x="318" y="172" width="34" height="40" rx="6"/>
  </g>
  <!-- roof / turret -->
  <polygon points="256,60 336,168 176,168" fill="url(#roof)"/>
  <polygon points="256,60 336,168 256,168" fill="#3f6fc4"/>
  <circle cx="256" cy="56" r="16" fill="#ffd54a"/>
  <!-- door -->
  <path d="M232 412 v-58 a24 24 0 0 1 48 0 v58 z" fill="#5b3f24"/>
  <!-- window -->
  <circle cx="256" cy="300" r="20" fill="#6fe0ff"/>
</svg>
